<svg xmlns="http://www.w3.org/2000/svg"
     xmlns:xlink="http://www.w3.org/1999/xlink"
     version="1.1"
     viewBox="0 0 512 512"
     xml:space="preserve"
     style="stroke: none; stroke-width: 1; stroke-dasharray: none; stroke-linecap: butt; stroke-dashoffset: 0; stroke-linejoin: miter; stroke-miterlimit: 4; fill: #fff3e0; fill-rule: nonzero; opacity: 1;"

>
    <g transform="matrix(1 0 0 1 256 256)">
        <path
                vector-effect="non-scaling-stroke"
                transform=" translate(-250, -155.61)"
                d="M 390.29866 144.62568 L 494.07998 268.20106999999996 L 494.07998 268.20106999999996 C 500.67208 276.05046999999996 502.1183 287.0087 497.7883 296.29956 C 493.4583 305.59042 484.13671 311.53031 473.8864 311.53031 L 250.12847999999997 311.53031 L 26.370559999999955 311.53031 L 26.370559999999955 311.53031 C 16.120249999999956 311.53031 6.7986599999999555 305.59042 2.4686599999999537 296.29956 C -1.8613400000000464 287.0087 -0.4151200000000461 276.05046999999996 6.176979999999954 268.20106999999996 L 109.95829999999995 144.62567999999996 L 219.38526999999993 14.327869999999962 L 219.38526999999993 14.327869999999962 C 227.01329999999993 5.244949999999962 238.26734999999994 0.00000999999996231793 250.12847999999994 0.00000999999996231793 C 261.9896099999999 0.00000999999996231793 273.2436599999999 5.2449599999999625 280.87168999999994 14.327869999999962 z"
                stroke-linecap="round"
        />
    </g>
</svg>