<?xml version="1.0" encoding="UTF-8"?>
<svg xmlns="http://www.w3.org/2000/svg" version="1.1" viewBox="0 0 2681.4 429">
  <defs>
    <style>
      .st0 {
        fill: #ffc69e;
      }
    </style>
  </defs>
  <g >
    <path class="st0" d="M381.3,255.1l101.4,120.7h0c6.4,7.7,7.9,18.4,3.6,27.4-4.2,9.1-13.3,14.9-23.3,14.9H25.8c-10,0-19.1-5.8-23.3-14.9-4.2-9.1-2.8-19.8,3.6-27.4l101.4-120.7,106.9-127.3h0c7.5-8.9,18.4-14,30-14s22.6,5.1,30,14l106.9,127.3Z" vector-effect="non-scaling-stroke"/>
  </g>
  <g >
    <g>
      <path class="st0" d="M751.9,122.1c24.3,15.6,38.2,42.3,41.8,80.3h-81.1c-1.1-10.4-4.1-18.7-8.8-24.8-8.9-11-24.1-16.5-45.5-16.5s-30.2,2.8-37.7,8.3c-7.5,5.5-11.2,12-11.2,19.4s4,16,12,20.2c8,4.4,36.2,11.9,84.5,22.5,32.3,7.6,56.5,19.1,72.6,34.4,15.9,15.6,23.9,35,23.9,58.4s-11.4,55.8-34.3,75.3c-22.9,19.5-58.2,29.2-106,29.2s-84.8-10.3-108-30.9c-23.2-20.6-34.9-46.8-34.9-78.7h82.3c1.7,14.4,5.4,24.7,11.1,30.7,10.1,10.8,28.7,16.2,55.8,16.2s28.6-2.4,38-7.1c9.4-4.7,14.1-11.9,14.1-21.3s-3.8-16-11.4-20.8c-7.6-4.7-35.8-12.9-84.5-24.5-35.1-8.7-59.9-19.6-74.3-32.7-14.4-12.9-21.6-31.5-21.6-55.8s11.2-53.3,33.7-73.9c22.5-20.6,54.1-30.9,94.9-30.9s70.3,7.7,94.8,23.1Z"/>
      <path class="st0" d="M837.9,217.2h163.4v76.9h-163.4v-76.9Z"/>
      <path class="st0" d="M1291.9,418.2l-48.7-226-49.2,226h-84.3l-87.1-310.3h87.1l48.4,222.6,44.7-222.6h82.3l47.3,223.5,48.4-223.5h84.5l-90,310.3h-83.4Z"/>
      <path class="st0" d="M1768.7,147.2c26.2,32.8,39.3,71.6,39.3,116.4s-13.1,84.5-39.3,116.9c-26.2,32.4-65.9,48.5-119.3,48.5s-93.1-16.2-119.3-48.5c-26.2-32.4-39.3-71.3-39.3-116.9s13.1-83.6,39.3-116.4c26.2-32.8,65.9-49.2,119.3-49.2s93.1,16.4,119.3,49.2ZM1649.2,166.5c-23.7,0-42,8.4-54.8,25.2-12.8,16.8-19.2,40.8-19.2,71.9s6.4,55.1,19.2,72c12.8,16.9,31.1,25.3,54.8,25.3s41.9-8.4,54.7-25.3c12.7-16.9,19.1-40.9,19.1-72s-6.4-55.1-19.1-71.9c-12.7-16.8-30.9-25.2-54.7-25.2Z"/>
      <path class="st0" d="M2022.1,182.8c-32.6,0-54.6,10.6-65.8,31.9-6.3,12-9.4,30.4-9.4,55.2v148.3h-81.7V107.9h77.4v54.1c12.5-20.7,23.4-34.8,32.7-42.4,15.2-12.7,34.9-19.1,59.2-19.1s2.8,0,3.8.1c1,0,3.4.2,7,.4v83.1c-5.1-.6-9.7-.9-13.7-1.1-4-.2-7.2-.3-9.7-.3Z"/>
      <path class="st0" d="M2377.6,418.2h-97.9l-74.3-132.7-33.6,35v97.6h-79.7V0h79.7v226l101.1-116.7h100.5l-108.5,118.7,112.7,190.2Z"/>
      <path class="st0" d="M2631,122.1c24.3,15.6,38.2,42.3,41.8,80.3h-81.1c-1.1-10.4-4.1-18.7-8.8-24.8-8.9-11-24.1-16.5-45.5-16.5s-30.2,2.8-37.7,8.3c-7.5,5.5-11.2,12-11.2,19.4s4,16,12,20.2c8,4.4,36.2,11.9,84.5,22.5,32.3,7.6,56.5,19.1,72.6,34.4,15.9,15.6,23.9,35,23.9,58.4s-11.4,55.8-34.3,75.3c-22.9,19.5-58.2,29.2-106,29.2s-84.8-10.3-108-30.9c-23.2-20.6-34.9-46.8-34.9-78.7h82.3c1.7,14.4,5.4,24.7,11.1,30.7,10.1,10.8,28.7,16.2,55.8,16.2s28.6-2.4,38-7.1c9.4-4.7,14.1-11.9,14.1-21.3s-3.8-16-11.4-20.8c-7.6-4.7-35.8-12.9-84.5-24.5-35.1-8.7-59.9-19.6-74.3-32.7-14.4-12.9-21.6-31.5-21.6-55.8s11.2-53.3,33.7-73.9c22.5-20.6,54.1-30.9,94.9-30.9s70.3,7.7,94.8,23.1Z"/>
    </g>
  </g>
</svg>
